<svg width="24" height="24" viewBox="0 0 12 12" xmlns="http://www.w3.org/2000/svg">
  <defs>
    <linearGradient id="codex-gradient" gradientUnits="userSpaceOnUse" x1="12" y1="3" x2="12" y2="21" gradientTransform="matrix(0.5, 0, 0, 0.5, 0, 0)">
      <stop offset="0" stop-color="#B1A7FF"/>
      <stop offset="0.5" stop-color="#7A9DFF"/>
      <stop offset="1" stop-color="#3941FF"/>
    </linearGradient>
  </defs>
  <path fill-rule="nonzero" fill="url(#codex-gradient)" d="M 4.53125 1.671875 C 4.894531 1.523438 5.285156 1.46875 5.675781 1.515625 C 6.175781 1.574219 6.621094 1.785156 7.011719 2.152344 C 7.015625 2.160156 7.023438 2.160156 7.03125 2.164062 C 7.035156 2.164062 7.042969 2.164062 7.050781 2.164062 C 7.558594 2.03125 8.097656 2.082031 8.574219 2.300781 L 8.597656 2.3125 L 8.65625 2.339844 C 9.15625 2.59375 9.542969 3.019531 9.75 3.539062 C 9.855469 3.796875 9.90625 4.0625 9.90625 4.339844 C 9.914062 4.542969 9.890625 4.75 9.839844 4.949219 C 9.835938 4.96875 9.839844 4.992188 9.855469 5.007812 C 10.152344 5.308594 10.347656 5.671875 10.445312 6.09375 C 10.589844 6.804688 10.441406 7.445312 10.003906 8.019531 L 9.933594 8.101562 C 9.644531 8.4375 9.261719 8.675781 8.835938 8.796875 C 8.816406 8.800781 8.800781 8.816406 8.792969 8.835938 C 8.699219 9.109375 8.601562 9.34375 8.425781 9.582031 C 7.972656 10.175781 7.3125 10.503906 6.570312 10.5 C 5.976562 10.496094 5.449219 10.28125 4.988281 9.847656 C 4.976562 9.835938 4.957031 9.832031 4.9375 9.835938 C 4.742188 9.898438 4.546875 9.910156 4.335938 9.90625 C 3.996094 9.902344 3.664062 9.824219 3.363281 9.671875 C 3.046875 9.515625 2.769531 9.289062 2.558594 9.003906 C 2.480469 8.90625 2.40625 8.808594 2.351562 8.695312 C 2.273438 8.542969 2.214844 8.382812 2.164062 8.214844 C 2.066406 7.839844 2.0625 7.445312 2.160156 7.066406 C 2.164062 7.058594 2.164062 7.050781 2.160156 7.039062 C 2.160156 7.03125 2.15625 7.023438 2.148438 7.015625 C 1.917969 6.78125 1.742188 6.5 1.632812 6.191406 C 1.558594 6 1.515625 5.796875 1.507812 5.59375 C 1.488281 5.324219 1.511719 5.054688 1.578125 4.792969 C 1.746094 4.238281 2.066406 3.800781 2.542969 3.484375 C 2.648438 3.414062 2.75 3.359375 2.84375 3.320312 C 2.949219 3.277344 3.058594 3.238281 3.167969 3.207031 C 3.183594 3.203125 3.195312 3.1875 3.199219 3.171875 C 3.28125 2.878906 3.421875 2.605469 3.613281 2.367188 C 3.855469 2.058594 4.171875 1.820312 4.53125 1.671875 Z M 6.273438 6.953125 C 6.105469 6.964844 5.972656 7.105469 5.972656 7.273438 C 5.972656 7.441406 6.105469 7.582031 6.273438 7.589844 L 8.089844 7.589844 C 8.207031 7.597656 8.320312 7.539062 8.382812 7.4375 C 8.441406 7.335938 8.441406 7.210938 8.382812 7.109375 C 8.320312 7.007812 8.207031 6.949219 8.089844 6.953125 Z M 4.230469 4.613281 C 4.140625 4.46875 3.949219 4.417969 3.800781 4.503906 C 3.652344 4.589844 3.597656 4.777344 3.679688 4.929688 L 4.3125 6.042969 L 3.679688 7.109375 C 3.589844 7.261719 3.640625 7.457031 3.792969 7.546875 C 3.945312 7.636719 4.140625 7.585938 4.226562 7.433594 L 4.957031 6.207031 C 5.015625 6.109375 5.015625 5.988281 4.957031 5.886719 Z"/>
  <path fill="#FFFFFF" d="M 6.273438 6.953125 C 6.105469 6.964844 5.972656 7.105469 5.972656 7.273438 C 5.972656 7.441406 6.105469 7.582031 6.273438 7.589844 L 8.089844 7.589844 C 8.207031 7.597656 8.320312 7.539062 8.382812 7.4375 C 8.441406 7.335938 8.441406 7.210938 8.382812 7.109375 C 8.320312 7.007812 8.207031 6.949219 8.089844 6.953125 Z"/>
  <path fill="#FFFFFF" d="M 4.230469 4.613281 C 4.140625 4.46875 3.949219 4.417969 3.800781 4.503906 C 3.652344 4.589844 3.597656 4.777344 3.679688 4.929688 L 4.3125 6.042969 L 3.679688 7.109375 C 3.589844 7.261719 3.640625 7.457031 3.792969 7.546875 C 3.945312 7.636719 4.140625 7.585938 4.226562 7.433594 L 4.957031 6.207031 C 5.015625 6.109375 5.015625 5.988281 4.957031 5.886719 Z"/>
</svg>
